HIERARCHY
ROOT Hips
{
	OFFSET 0.000000 0.000000 0.000000
	CHANNELS 6 Xposition Yposition Zposition Xrotation Yrotation Zrotation
	JOINT LeftUpLeg_virtual
	{
		OFFSET 0.000000 0.000000 0.000000
		CHANNELS 3 Xrotation Yrotation Zrotation
		JOINT LeftUpLeg
		{
			OFFSET 13.026900 -6.336304 -1.092800
			CHANNELS 3 Xrotation Yrotation Zrotation
			JOINT LeftLeg
			{
				OFFSET 0.524474 -46.096886 9.782700
				CHANNELS 3 Xrotation Yrotation Zrotation
				JOINT LeftFoot
				{
					OFFSET -0.524474 -53.427422 -12.948200
					CHANNELS 3 Xrotation Yrotation Zrotation
					JOINT LeftToeBase
					{
						OFFSET 0.192200 -14.009700 16.364100
						CHANNELS 3 Xrotation Yrotation Zrotation
						JOINT LeftToe_End
						{
							OFFSET -1.784700 -0.561700 9.474800
							CHANNELS 3 Xrotation Yrotation Zrotation
							End Site
							{
								OFFSET 0 0 0
							}
						}
					}
				}
			}
		}
	}
	JOINT RightUpLeg_virtual
	{
		OFFSET 0.000000 0.000000 0.000000
		CHANNELS 3 Xrotation Yrotation Zrotation
		JOINT RightUpLeg
		{
			OFFSET -12.883000 -6.336304 -1.092800
			CHANNELS 3 Xrotation Yrotation Zrotation
			JOINT RightLeg
			{
				OFFSET -0.524587 -46.096825 9.782800
				CHANNELS 3 Xrotation Yrotation Zrotation
				JOINT RightFoot
				{
					OFFSET 0.524587 -53.427383 -12.948300
					CHANNELS 3 Xrotation Yrotation Zrotation
					JOINT RightToeBase
					{
						OFFSET -0.192200 -14.009700 16.364100
						CHANNELS 3 Xrotation Yrotation Zrotation
						JOINT RightToe_End
						{
							OFFSET 1.784700 -0.561700 9.474800
							CHANNELS 3 Xrotation Yrotation Zrotation
							End Site
							{
								OFFSET 0 0 0
							}
						}
					}
				}
			}
		}
	}
	JOINT Spine_virtual
	{
		OFFSET 0.000000 0.000000 0.000000
		CHANNELS 3 Xrotation Yrotation Zrotation
		JOINT Spine
		{
			OFFSET 0.072000 7.257294 -0.789700
			CHANNELS 3 Xrotation Yrotation Zrotation
			JOINT Spine1
			{
				OFFSET 0.000000 12.508769 -0.658067
				CHANNELS 3 Xrotation Yrotation Zrotation
				JOINT Spine1_split
				{
					OFFSET 0.000000 12.508769 -0.658067
					CHANNELS 3 Xrotation Yrotation Zrotation
					JOINT Spine2
					{
						OFFSET 0.000000 12.508769 -0.658067
						CHANNELS 3 Xrotation Yrotation Zrotation
						JOINT Neck_virtual
						{
							OFFSET 0.000000 0.000000 0.000000
							CHANNELS 3 Xrotation Yrotation Zrotation
							JOINT Neck
							{
								OFFSET 0.000000 14.033295 7.520400
								CHANNELS 3 Xrotation Yrotation Zrotation
								JOINT Head
								{
									OFFSET 0.000000 8.198502 5.703100
									CHANNELS 3 Xrotation Yrotation Zrotation
									JOINT HeadTop_End
									{
										OFFSET 0.000000 17.760803 13.332701
										CHANNELS 3 Xrotation Yrotation Zrotation
										End Site
										{
											OFFSET 0 0 0
										}
									}
								}
							}
						}
						JOINT LeftShoulder_virtual
						{
							OFFSET 0.000000 0.000000 0.000000
							CHANNELS 3 Xrotation Yrotation Zrotation
							JOINT LeftShoulder
							{
								OFFSET 6.292450 5.785301 -0.669000
								CHANNELS 3 Xrotation Yrotation Zrotation
								JOINT LeftShoulder_split
								{
									OFFSET 6.292450 5.785301 -0.669000
									CHANNELS 3 Xrotation Yrotation Zrotation
									JOINT LeftArm
									{
										OFFSET 13.907140 -6.093903 1.965100
										CHANNELS 3 Xrotation Yrotation Zrotation
										JOINT LeftForeArm
										{
											OFFSET 34.140198 0.000000 0.000000
											CHANNELS 3 Xrotation Yrotation Zrotation
											JOINT LeftHand
											{
												OFFSET 40.960209 0.000000 0.000000
												CHANNELS 3 Xrotation Yrotation Zrotation
												End Site
												{
													OFFSET 0 0 0
												}
											}
										}
									}
								}
							}
						}
						JOINT RightShoulder_virtual
						{
							OFFSET 0.000000 0.000000 0.000000
							CHANNELS 3 Xrotation Yrotation Zrotation
							JOINT RightShoulder
							{
								OFFSET -6.292450 5.785301 -0.669000
								CHANNELS 3 Xrotation Yrotation Zrotation
								JOINT RightShoulder_split
								{
									OFFSET -6.292450 5.785301 -0.669000
									CHANNELS 3 Xrotation Yrotation Zrotation
									JOINT RightArm
									{
										OFFSET -13.907140 -6.093903 1.965100
										CHANNELS 3 Xrotation Yrotation Zrotation
										JOINT RightForeArm
										{
											OFFSET -34.140198 0.000000 0.000000
											CHANNELS 3 Xrotation Yrotation Zrotation
											JOINT RightHand
											{
												OFFSET -40.960209 0.000000 0.000000
												CHANNELS 3 Xrotation Yrotation Zrotation
												End Site
												{
													OFFSET 0 0 0
												}
											}
										}
									}
								}
							}
						}
					}
				}
			}
		}
	}
}
MOTION
Frames: 4
Frame Time: 0.03333333
-3.774254 110.702377 -2.886684 0.000000 0.000000 0.000000 -0.473067 -43.888897 3.451165 -18.752622 7.825875 11.075438 12.867122 -6.145693 3.936020 1.844341 -3.190073 -18.539032 -2.131705 0.735670 0.226287 0.000000 0.000000 0.000000 -1.718447 -43.419168 3.512121 -8.824166 -9.131542 -16.086822 21.077163 -10.234760 -8.330251 -5.616334 -5.250124 21.425825 -5.062421 -0.135930 0.819804 0.000000 0.000000 0.000000 -0.391425 -45.435894 3.348230 6.974174 3.332446 -0.175760 0.326724 2.348985 -1.522042 1.109282 -1.597051 1.016063 0.000000 0.000000 0.000000 -0.472232 2.023889 -1.456915 -16.957384 -2.040680 19.274980 -1.736450 18.265543 -17.084316 0.000000 0.000000 0.000000 -0.149543 1.785921 -1.327737 -7.416998 -7.393790 -13.889102 -5.712635 -2.220499 -3.063305 4.569776 -4.608124 -30.050326 43.868048 -38.833635 17.326921 0.000000 0.000000 0.000000 -0.694280 1.673648 -1.164509 -1.848628 14.379360 -18.836975 -5.546593 3.153081 0.016912 -73.344853 10.987929 18.475281 -76.055857 34.037421 55.852513 0.000000 0.000000 0.000000 
-2.236278 110.073540 -3.067810 0.000000 0.000000 0.000000 -0.790382 -46.087883 3.525712 -19.805240 7.970040 11.463237 14.668849 -5.128285 3.310471 0.966242 -2.816248 -17.888344 -1.602322 0.719811 0.122371 0.000000 0.000000 0.000000 -1.796303 -45.409044 3.626226 -10.929760 -8.625048 -17.151933 22.163394 -9.145638 -8.379218 -5.186343 -5.037639 21.702571 -4.348306 -0.174835 0.737109 0.000000 0.000000 0.000000 -0.887168 -47.628412 3.200740 7.478777 3.528219 0.137453 1.006345 2.368288 -1.268991 0.991731 -1.517315 1.128382 0.000000 0.000000 0.000000 0.064312 2.039799 -1.239197 -17.317084 1.571473 19.249544 0.085894 21.473082 -16.652952 0.000000 0.000000 0.000000 0.534846 1.762580 -1.175639 -7.044521 -6.974748 -13.192885 -5.902725 -2.503948 -3.840252 4.002526 -3.358980 -30.468108 44.081450 -40.008120 18.101091 0.000000 0.000000 0.000000 -0.127756 1.683510 -0.928024 -2.727965 14.695796 -12.940709 -4.768181 3.659894 0.166818 -65.841323 12.678733 19.119786 -78.911655 40.909203 60.773097 0.000000 0.000000 0.000000 
-0.835779 109.368553 -3.257397 0.000000 0.000000 0.000000 -0.961890 -48.328506 3.635166 -21.205456 7.998233 12.013104 16.848789 -4.173400 2.678230 0.101518 -2.470355 -17.377319 -1.081114 0.728161 0.003027 0.000000 0.000000 0.000000 -1.845952 -47.403750 3.747268 -13.260669 -7.996680 -18.099890 23.625431 -7.943937 -8.425377 -4.890665 -4.586776 22.198067 -3.712601 -0.170603 0.589514 0.000000 0.000000 0.000000 -1.160595 -49.751289 3.155743 7.946502 3.684553 0.399009 1.741409 2.396497 -1.116647 1.045019 -1.569205 1.146556 0.000000 0.000000 0.000000 0.651268 2.066503 -1.120564 -18.009013 4.939666 18.886834 1.468832 23.760596 -15.930682 0.000000 0.000000 0.000000 1.283700 1.753290 -1.094674 -6.716168 -6.709283 -12.440448 -6.176286 -2.775478 -4.745213 3.292060 -3.108590 -30.690147 43.171355 -40.101232 17.882304 0.000000 0.000000 0.000000 0.527163 1.698281 -0.785142 -3.683690 15.050600 -7.010438 -3.844745 4.433647 0.484125 -57.428606 13.759099 19.233780 -81.754776 47.970492 64.492668 0.000000 0.000000 0.000000 
0.409203 108.629234 -3.368126 0.000000 0.000000 0.000000 -0.971384 -50.446425 3.764284 -22.890927 7.847592 12.680618 19.283589 -3.350494 2.060005 -0.623392 -2.268296 -17.050276 -0.713750 0.744515 -0.100580 0.000000 0.000000 0.000000 -1.819632 -49.237580 3.886607 -15.658371 -7.284608 -18.814839 25.280743 -6.714487 -8.485614 -4.880633 -4.009357 22.680782 -3.087667 -0.127207 0.416522 0.000000 0.000000 0.000000 -1.193414 -51.689280 3.217469 8.353893 3.761276 0.586670 2.473629 2.420066 -1.051123 1.064803 -1.669201 1.122527 0.000000 0.000000 0.000000 1.257628 2.083776 -1.072790 -18.934215 8.069180 18.258812 2.534392 25.288080 -15.066762 0.000000 0.000000 0.000000 2.027974 1.739070 -1.064408 -6.442710 -6.653600 -11.648046 -6.518467 -2.951424 -5.639790 2.394086 -3.609409 -30.699330 41.268204 -39.290462 16.788967 0.000000 0.000000 0.000000 1.227079 1.716904 -0.717374 -4.620785 15.464033 -1.357317 -3.154903 4.797485 0.771281 -48.899349 14.425165 19.108255 -83.028264 54.838230 65.575704 0.000000 0.000000 0.000000 
